<svg width="500" height="500" viewBox="0 0 500 500" fill="none" xmlns="http://www.w3.org/2000/svg">
<path d="M293.207 1.51551C274.194 5.7791 255.418 20.3464 247.152 37.2823C243.727 44.3883 242.546 45.8095 240.066 45.8095C238.531 45.9279 234.988 46.7569 232.272 47.8228C227.785 49.4809 227.076 49.4809 223.652 47.7044C221.526 46.6385 219.401 44.3883 218.692 42.6118C215.386 33.7293 211.843 28.1629 205.348 21.5307C192.83 9.09522 179.604 4.95007 162.599 8.50306C148.31 11.3454 139.454 16.3196 128.235 27.5708C113.12 42.8486 105.444 61.2057 105.444 82.0499C105.444 92.9458 106.979 96.9725 108.868 91.7615C109.577 89.8665 110.167 87.3794 110.167 86.1951C110.167 82.1684 115.954 65.5878 119.615 59.3108C127.409 45.691 141.107 34.3214 151.853 32.4265C163.426 30.2947 175.825 38.7035 180.667 51.968C184.682 62.7454 184.8 64.1666 181.966 65.4693C179.25 66.7721 178.305 68.1933 176.652 73.7596C175.943 76.1283 174.29 78.0232 171.456 79.326C167.795 80.9841 167.087 82.0499 166.496 86.1951C165.552 93.1826 164.135 94.4854 158.82 93.1826C151.735 91.5246 143.941 91.9983 136.029 94.367C131.896 95.6697 124.574 97.5647 119.733 98.5121C115.009 99.578 110.404 100.999 109.459 101.71C104.381 105.973 112.765 119.712 125.873 128.713C134.966 134.989 143.351 137.358 154.333 137.003C167.323 136.411 167.913 137.595 160.238 150.149C153.506 161.518 147.011 168.624 141.461 170.993C135.321 173.599 127.999 173.006 122.095 169.69C119.378 168.032 116.78 166.73 116.544 166.73C116.19 166.73 116.78 168.388 117.843 170.283C120.087 174.783 127.409 179.639 133.904 181.06C146.421 183.902 166.851 170.638 166.851 159.505C166.851 152.991 168.976 155.123 169.685 162.348C170.393 168.98 170.157 170.401 167.323 175.967C165.079 180.231 163.898 184.968 163.308 190.771C162.836 195.509 161.3 202.259 159.883 205.812C149.728 230.565 152.916 257.923 167.913 276.043C176.062 285.755 180.903 303.164 178.66 314.534C177.006 323.653 171.81 333.365 165.788 338.576C160.001 343.787 160.119 343.905 169.685 341.418C184.8 337.51 196.845 323.653 198.381 308.375C199.089 301.033 197.318 297.124 187.516 284.57C179.25 274.03 176.298 266.332 176.298 255.199C176.298 250.462 176.652 244.658 177.006 242.29L177.715 237.908L180.785 243.829C182.32 247.146 184.446 250.106 185.391 250.462C186.453 250.817 188.815 253.659 190.705 256.62C194.247 261.95 194.247 261.95 193.539 258.16C192.594 252.593 193.657 253.541 195.783 259.936L197.554 265.621L196.845 259.699C195.901 251.409 196.963 253.304 199.798 264.792C201.097 270.122 203.931 278.175 205.938 282.557C207.946 286.939 210.19 293.098 210.78 296.414C211.961 301.862 211.725 303.283 208.3 312.994C200.034 336.089 202.868 358.709 215.976 374.698C219.873 379.554 219.991 380.027 219.991 390.213C219.991 399.332 221.526 409.043 224.124 417.215C224.597 418.518 223.534 417.452 221.88 414.847C218.102 409.162 214.559 397.319 213.496 387.607C212.788 381.685 207.473 368.303 206.293 369.605C206.056 369.724 206.647 375.172 207.473 381.685C208.3 388.199 208.891 393.766 208.654 393.884C207.946 394.831 203.577 384.883 201.569 378.132C199.207 369.842 198.853 357.525 200.86 346.748C201.569 342.484 202.75 332.062 203.458 323.653C204.049 315.126 204.876 305.888 205.23 302.927C205.702 299.493 205.112 294.282 203.695 288.123C201.687 279.951 201.333 279.241 201.215 283.386L201.097 288.123L196.373 281.61C193.775 278.057 189.524 270.832 186.926 265.621C182.438 256.739 182.084 256.502 183.974 263.845C184.328 265.503 188.225 273.911 192.594 282.557C200.27 297.953 200.506 298.664 200.86 308.849C201.333 318.087 200.742 321.166 196.963 335.023C189.288 362.262 191.177 378.725 204.285 401.819C211.607 414.61 219.873 425.506 233.689 440.31C246.561 454.285 255.536 466.602 258.37 473.826C259.433 476.55 261.204 483.538 262.267 489.341L264.393 500L267.109 490.525C268.644 485.433 272.659 470.273 276.084 456.89C288.247 409.517 291.317 404.306 329.578 367.592C334.892 362.499 339.262 357.762 339.262 357.288C339.262 355.63 313.991 375.882 305.96 383.936C288.955 400.99 279.626 421.005 271.951 457.127C269.943 466.72 267.581 476.55 266.755 479.037C265.219 483.419 265.219 483.183 264.393 471.695C263.566 459.614 260.496 443.507 257.307 434.625C256.363 431.901 253.292 426.572 250.694 422.9C245.38 415.439 242.428 406.912 242.428 399.332C242.428 393.173 246.443 380.264 249.513 376.356C251.639 373.632 251.639 373.869 249.277 379.317C247.034 384.291 246.561 387.252 246.561 397.674C246.561 408.57 247.034 410.938 249.75 416.742C253.647 425.387 256.127 427.164 254.946 420.65C251.875 402.056 253.41 383.699 259.079 371.855C260.496 368.895 267.345 360.604 274.312 353.262C288.601 338.102 294.978 329.22 298.639 318.916C301.237 311.81 302.654 301.388 301.237 299.967C300.883 299.611 299.938 302.098 299.111 305.533C296.868 315.126 291.435 325.667 283.878 335.141C273.722 347.932 270.652 350.301 275.848 341.418C280.217 333.957 286.121 320.574 286.121 318.205C286.121 317.376 285.059 317.968 283.76 319.508C279.272 324.719 281.398 319.627 286.121 313.942C298.639 298.901 308.558 284.689 311.038 278.412C313.164 272.964 313.754 268.7 313.991 257.923L314.345 244.303L312.81 252.83C309.975 267.516 305.252 275.806 292.734 288.005C280.099 300.44 277.383 304.941 274.194 319.863C271.006 334.668 267.109 342.721 256.835 356.104C242.9 374.343 235.697 390.331 234.634 405.964C233.926 415.913 235.225 421.124 241.247 431.309L244.908 437.349L241.129 433.204C234.634 425.979 231.328 417.215 231.328 407.741C231.446 383.817 232.39 376.119 236.287 367.829C238.413 363.565 242.9 356.341 246.325 351.84C259.433 334.904 260.378 332.062 260.614 306.599C260.732 290.966 261.204 285.992 262.858 282.32C265.456 276.398 265.338 275.925 262.385 279.596C261.086 281.373 259.079 285.518 257.78 288.952C256.245 293.334 255.536 294.4 255.536 292.269C255.418 287.176 259.787 279.478 266.873 271.898C272.541 265.976 273.131 265.029 270.179 266.569C264.747 269.293 256.717 277.583 254.119 283.149L251.757 288.123L252.23 282.439C252.938 274.859 258.724 266.569 268.054 259.699C275.493 254.133 284.94 244.422 284.94 242.171C284.94 241.461 283.169 242.527 281.162 244.422C277.855 247.501 269.234 253.186 267.817 253.186C267.581 253.186 267.935 251.409 268.644 249.277C270.061 245.132 273.84 239.447 279.508 233.17C282.342 229.973 281.398 230.446 275.021 235.421C265.338 243 266.046 240.158 276.674 228.907C293.207 211.497 295.687 204.747 296.159 174.428C296.395 159.86 297.104 151.215 298.285 147.188C299.229 143.872 300.174 142.332 300.174 143.635C300.764 156.663 303.599 177.152 307.496 195.746C310.684 211.26 312.101 221.564 312.219 228.907C312.337 238.382 312.455 239.092 313.518 234.829C314.817 229.381 313.046 206.168 310.448 193.969C307.259 179.165 307.259 178.81 309.149 183.902C311.983 191.127 314.227 202.733 315.053 215.287C315.526 221.446 316.825 230.565 318.006 235.421C319.186 240.276 320.722 247.856 321.43 252.238C323.792 266.45 328.87 276.517 339.026 287.531C345.166 293.927 345.284 293.216 339.734 285.044C331.822 273.201 330.759 269.648 329.696 250.817C329.224 241.342 328.516 232.341 327.925 230.683C327.335 228.552 328.161 229.144 331.114 233.052C335.129 238.263 345.875 247.264 348 247.264C348.591 247.264 345.875 244.303 341.978 240.75C337.963 237.197 333.357 231.868 331.704 228.907C328.634 223.696 319.895 198.706 320.84 197.877C321.076 197.522 323.083 199.535 325.209 202.259C327.453 204.983 335.129 211.616 342.214 217.064C366.541 235.184 375.633 248.448 392.875 289.9C393.229 290.847 393.347 288.834 392.993 285.399C392.048 277.109 387.442 262.542 383.191 254.844L379.885 248.922L385.907 249.396C390.04 249.751 393.229 249.277 395.709 247.975C397.834 246.909 399.488 245.843 399.488 245.724C399.488 245.487 397.598 245.606 395.354 245.843C393.111 246.08 389.804 245.961 388.033 245.487L384.726 244.658L388.387 243.119C393.229 241.105 395.945 237.079 395.827 231.868V227.723L394.055 231.986C391.221 238.737 383.782 240.869 375.161 237.197C372.917 236.25 366.304 231.039 360.636 225.709C354.85 220.261 345.048 211.142 338.789 205.457C326.626 194.206 319.068 184.613 313.282 172.888C308.676 163.532 308.795 161.992 313.4 170.046C321.784 184.376 334.066 194.206 345.757 195.746L351.661 196.456L343.277 192.311C328.634 184.968 316.943 169.809 311.511 150.978C307.141 135.937 310.448 132.384 329.578 131.081C336.546 130.607 344.576 129.423 347.528 128.357C365.596 121.607 379.885 104.315 381.538 87.1426C382.365 78.0232 380.947 76.7205 370.083 76.7205C359.219 76.7205 348.591 78.497 328.043 83.3527L310.33 87.6163L303.008 83.1158C297.694 79.7997 295.569 77.7864 295.569 76.0099C295.569 74.3518 294.624 73.1675 292.852 72.6937C291.435 72.3384 288.719 70.4435 286.83 68.5486L283.523 64.9956L287.066 57.5343C294.033 42.8486 304.189 34.3214 318.832 31.0053C345.639 25.0837 372.681 38.585 388.978 66.1799C391.694 70.6804 394.292 74.7071 394.882 75.0624C396.653 76.1283 396.063 67.7196 393.701 60.3767C389.922 48.0597 383.427 37.8744 372.445 26.9786C360.99 15.609 349.89 8.73992 335.129 3.76574C323.32 -0.142553 305.016 -1.20845 293.207 1.51551ZM323.438 5.4238C324.146 5.89753 325.327 7.43716 326.154 8.85835C327.453 11.4639 327.335 11.5823 321.43 11.5823C316.352 11.5823 314.699 10.9901 311.274 8.02932L307.259 4.47633H314.699C318.832 4.47633 322.729 4.95007 323.438 5.4238ZM309.385 10.2796C313.046 15.7275 312.81 17.3855 308.913 13.7141C307.023 12.056 303.717 9.45052 301.473 8.14776L297.34 5.54223L302.063 5.89753C305.842 6.1344 307.259 6.96343 309.385 10.2796ZM354.968 17.1487C358.628 19.3989 361.699 21.4123 361.699 21.6491C361.699 22.3597 342.096 13.4772 340.206 11.8192C338.317 10.1611 338.081 10.2796 338.081 12.1745C338.081 14.1878 337.963 14.1878 335.837 12.2929C334.184 10.8717 333.475 10.6348 333.121 11.7007C332.885 12.5298 331.468 11.5823 329.933 9.45052L327.335 5.66066L337.727 9.33209C343.395 11.3454 351.189 14.8984 354.968 17.1487ZM302.3 13.2404C304.425 15.609 306.197 18.4514 306.197 19.5173C306.079 21.057 305.606 20.7017 304.307 18.333C302.654 15.2537 299.111 13.8325 299.111 16.3196C299.111 16.9118 298.048 17.504 296.749 17.504C294.742 17.504 294.506 17.8593 295.569 19.7542C296.159 21.057 296.749 22.8334 296.749 23.6625C296.631 24.4915 295.805 23.7809 294.86 22.0044C293.915 20.1095 290.373 17.1487 287.066 15.2537L281.043 11.7007L285.059 9.92425C291.435 7.08186 297.812 8.26619 302.3 13.2404ZM185.391 13.0035C188.225 13.7141 191.059 15.0169 191.768 15.8459C192.83 17.1487 192.358 17.504 189.17 17.504C186.926 17.504 183.147 18.5699 180.667 19.8726C175.353 22.715 174.999 21.1754 179.959 17.0302C184.21 13.3588 182.084 13.0035 176.416 16.4381C171.81 19.162 170.275 18.5699 173.346 15.1353C175.471 12.8851 175.353 12.7666 173.109 12.7666C171.81 12.7666 169.212 13.951 167.323 15.3722C164.371 17.7408 164.135 17.7408 165.67 15.7275C169.567 10.2796 172.991 9.80582 185.391 13.0035ZM164.135 12.2929C163.78 12.6482 162.717 12.7666 161.891 12.4113C160.946 12.056 161.3 11.7007 162.599 11.7007C163.898 11.5823 164.607 11.9376 164.135 12.2929ZM285.885 17.0302C287.302 17.9777 288.483 19.2805 288.483 19.8726C288.483 22.1229 286.121 22.1229 279.744 19.7542C273.722 17.3855 273.368 17.0302 275.139 15.609C277.501 13.8325 281.752 14.4247 285.885 17.0302ZM198.617 22.715L201.215 25.5574L196.727 26.3864C194.247 26.7417 190.35 28.2814 188.107 29.5841L183.974 31.9528L187.28 28.5182C190.941 24.6099 190.469 23.0703 186.099 24.7284C182.084 26.268 181.73 26.0311 183.501 23.8993C187.28 19.2805 194.838 18.6883 198.617 22.715ZM279.744 21.7676C284.704 24.1362 287.302 27.5708 286.476 30.65C285.767 33.0187 285.767 33.0187 283.287 30.65C279.863 27.4523 272.895 24.6099 268.29 24.6099C264.629 24.6099 264.511 24.6099 266.636 22.2413C269.234 19.3989 274.312 19.162 279.744 21.7676ZM204.403 30.1763C204.639 31.2422 203.104 31.7159 198.735 31.7159C195.428 31.7159 191.649 32.3081 190.232 33.0187C186.217 35.1505 186.453 33.1371 190.587 30.5316C194.956 27.9261 203.458 27.6892 204.403 30.1763ZM272.777 29.4657C276.438 30.7685 282.579 36.2164 282.579 37.9929C282.579 38.7035 281.634 38.3482 280.453 37.2823C277.146 34.203 270.061 31.7159 264.865 31.7159C260.496 31.7159 259.079 30.7685 260.968 28.992C262.149 27.6892 268.998 28.0445 272.777 29.4657ZM205.82 34.6767C207.119 36.2164 206.529 36.4532 201.569 36.4532C198.381 36.4532 193.421 37.5191 190.587 38.9403L185.273 41.309L187.634 38.7035C192.24 33.374 202.868 31.1238 205.82 34.6767ZM270.77 35.9795C273.368 37.0454 276.084 38.9403 276.792 40.1247C278.209 42.8486 277.619 42.9671 272.895 40.48C270.888 39.4141 266.282 38.585 262.385 38.4666C257.425 38.4666 255.772 37.9929 256.245 36.927C257.425 33.8477 264.275 33.374 270.77 35.9795ZM206.883 40.48C207.946 41.7827 207.001 42.138 201.687 42.7302C198.026 43.0855 193.067 44.5067 190.705 45.9279L186.335 48.5334L189.878 44.862C194.838 39.5325 204.167 37.1638 206.883 40.48ZM269.116 44.6251C274.076 46.8753 276.792 49.4809 274.312 49.4809C273.604 49.4809 271.832 48.8887 270.415 48.0597C268.998 47.3491 264.157 46.2832 259.551 45.9279C252.23 45.2173 251.639 44.9804 254.237 43.7961C258.606 41.9012 263.684 42.138 269.116 44.6251ZM209.127 49.7177C209.481 51.3758 208.418 51.7311 201.923 51.4942C197.672 51.3758 194.484 50.7836 194.838 50.3099C196.963 46.8753 208.536 46.4016 209.127 49.7177ZM238.885 53.3892C238.885 56.4684 241.129 58.9555 246.797 61.7979C249.632 63.2191 252.466 63.456 259.787 62.8638C267.699 62.2716 269.707 62.5085 273.722 64.6403C279.39 67.4827 288.483 75.1808 288.483 77.0758C288.483 77.7864 287.302 79.5629 285.885 81.1025C283.878 83.2343 283.76 83.708 285.177 83.2343C288.601 81.9315 299.702 106.329 296.631 108.224C295.923 108.579 295.805 109.882 296.159 111.184C297.104 114.027 295.45 114.027 290.018 111.066C287.538 109.763 283.878 108.697 281.752 108.697C275.848 108.697 268.644 116.04 264.983 125.633L263.684 128.831L267.463 126.936C271.006 125.16 271.596 125.16 276.792 126.936C281.87 128.831 282.697 128.831 285.885 127.173C287.893 126.107 289.782 124.212 290.254 122.909C291.081 120.304 292.616 119.83 293.797 121.725C294.978 123.62 290.609 129.778 287.066 131.318C285.295 132.029 282.106 132.266 279.981 131.91C269.589 129.778 267.817 129.778 264.511 132.384C258.843 136.884 256.127 143.754 256.008 153.465C256.008 159.86 255.772 161.4 254.946 159.387C253.174 155.242 249.277 148.728 248.805 149.32C248.451 149.557 249.632 152.636 251.285 156.189C252.938 159.742 254.237 164.479 254.237 166.73V170.875L251.521 166.374L248.805 161.874L247.388 170.283C246.561 174.901 245.971 182.718 245.971 187.811C245.853 196.693 245.853 196.812 244.081 193.614C243.019 191.719 242.074 190.416 241.72 190.653C241.011 191.482 243.373 198.588 246.089 203.562C248.687 208.655 249.159 212.089 246.797 208.773C245.262 206.76 245.144 206.76 244.554 209.01C244.199 210.313 241.956 212.918 239.476 214.813C235.225 218.011 234.28 218.248 224.242 218.248C217.393 218.248 211.016 217.419 206.765 216.116C200.506 214.221 199.916 213.747 199.916 210.668C199.916 206.76 203.695 195.39 206.293 191.245C207.592 189.35 209.835 188.047 212.906 187.574C221.644 186.153 225.305 176.559 218.574 172.77C215.858 171.23 214.205 171.23 206.529 172.533C198.735 173.836 196.609 173.717 190.941 172.059C184.918 170.283 184.092 170.283 181.494 172.059C177.479 174.665 177.715 179.165 182.084 181.415C185.273 183.073 187.634 186.508 186.453 187.692C186.217 188.047 184.446 187.455 182.557 186.389C179.014 184.613 176.298 178.573 176.298 172.533C176.298 170.993 180.195 162.466 184.918 153.702C194.72 135.819 196.845 130.252 196.137 125.16C195.546 121.251 195.664 121.251 198.853 123.028C201.215 124.212 201.215 123.975 200.388 118.646C199.798 114.264 199.916 113.316 201.097 114.027C205.466 116.751 196.255 96.2619 189.996 89.1559L185.745 84.4186L187.516 90.3403C188.461 93.5379 190.232 99.4596 191.649 103.249C194.602 111.895 194.72 114.382 191.768 108.105C190.587 105.5 186.926 100.17 183.501 96.2619C175.589 87.0241 175.117 85.1292 179.25 77.0758C182.32 70.9172 182.557 70.6804 184.682 72.6937C186.808 74.5887 186.926 74.5887 186.926 72.1016C186.926 65.7062 193.067 61.3242 202.159 61.3242H207.001L203.34 66.4168C194.956 78.3785 197.554 86.0767 216.566 105.618C223.888 113.198 230.029 119.119 230.265 118.883C230.501 118.764 229.792 116.632 228.848 114.264C226.486 108.579 226.604 100.052 229.084 95.3144C230.147 93.1826 233.689 88.4453 236.878 84.6555C242.074 78.7338 242.9 77.0758 243.373 71.6278C243.727 66.5352 243.373 64.8772 241.247 62.5085C239.003 59.903 238.885 59.903 239.948 62.1532C240.657 63.5744 241.247 67.1274 241.247 69.9698C241.247 74.7071 240.539 76.0099 234.634 82.7605C226.604 91.7615 223.652 97.8015 223.416 105.737L223.298 111.658L221.526 107.513C220.581 105.263 219.164 100.17 218.574 96.2619C217.157 87.6163 218.456 81.8131 223.534 74.1149C226.368 69.7329 229.32 60.2583 229.438 54.5735C229.438 53.9813 236.051 50.7836 237.468 50.6652C238.177 50.6652 238.885 51.968 238.885 53.3892ZM224.242 59.3108C223.77 63.3375 222.353 67.009 219.991 70.4435C214.795 77.6679 212.906 82.879 212.788 90.5771L212.669 97.4462L210.426 92.7089C207.946 87.3794 207.592 81.4578 209.481 77.5495C210.662 74.944 210.662 74.944 208.772 77.3126C207.355 78.9707 207.001 81.5762 207.237 86.432C207.592 93.7748 207.237 93.8932 203.577 86.7873C200.506 81.1025 200.388 77.3126 203.222 72.4569C205.702 67.838 217.983 53.9813 216.921 56.8237C215.74 60.2583 218.102 59.1924 220.463 55.4025C223.416 50.3099 225.187 52.0864 224.242 59.3108ZM377.405 87.6163C377.051 100.052 362.762 117.698 349.063 122.909C340.561 126.107 333.003 126.936 326.862 125.515L322.139 124.331L328.043 124.212C348.827 123.738 367.485 110.592 370.556 94.1301L371.382 89.7481L364.533 93.3011C360.636 95.3144 355.44 97.2094 352.842 97.5647L348.118 98.1568L352.724 95.6697C355.204 94.2485 359.455 91.5246 362.053 89.6297L366.777 86.1951H360.754C352.134 86.1951 343.041 88.3269 337.136 91.7615C333.003 94.1301 325.563 102.657 317.887 113.79C317.415 114.382 316.47 114.619 315.762 114.145C313.991 112.961 320.485 100.525 326.036 94.2485C329.106 90.814 329.696 89.7481 327.807 90.814C323.32 93.1826 313.4 103.96 311.274 108.816C310.212 111.421 308.913 113.435 308.558 113.435C307.259 113.435 305.016 105.737 305.016 101.355C305.016 98.6306 304.307 96.8541 303.244 96.3803C301.827 95.9066 301.473 96.8541 301.355 101.355V106.921L299.82 101.591C298.993 98.6306 297.576 93.7748 296.631 90.6956C295.805 87.6163 295.45 84.7739 295.923 84.3002C296.277 83.8264 299.584 85.4845 303.126 87.9716L309.621 92.4721L320.013 89.2744C336.9 84.0633 335.483 84.3002 332.885 87.261C330.169 90.3403 330.051 90.3403 338.081 87.261C347.764 83.5896 358.865 81.5762 368.784 81.8131L377.641 82.0499L377.405 87.6163ZM176.77 90.6956C179.84 95.9066 179.959 96.1435 177.361 93.8932C175.825 92.5905 173.936 90.6956 173.109 89.7481C172.047 88.4453 171.692 88.4453 171.574 89.5112C171.574 90.3403 174.999 94.367 179.132 98.5121C187.634 106.921 188.815 109.882 189.996 124.686C190.705 133.924 190.587 134.516 186.572 142.451C184.328 147.07 181.021 153.11 179.25 156.071L176.18 161.4L176.534 155.715C176.77 152.636 176.652 150.149 176.298 150.149C175.943 150.149 175.707 146.241 175.707 141.503V132.976L171.574 133.331C168.976 133.568 166.969 132.976 166.142 131.792C164.961 130.134 164.135 130.134 157.521 131.792C148.665 134.16 140.162 132.858 131.069 128.002C123.866 123.975 114.655 115.093 112.529 110C110.049 103.96 112.175 102.776 127.409 101.947C139.218 101.355 140.753 101.473 145.476 103.842C148.192 105.263 150.318 106.684 150.082 106.921C149.964 107.158 146.539 106.447 142.524 105.381C136.383 103.723 134.14 103.723 126.936 105.026C119.733 106.329 118.434 106.921 118.434 108.934C118.434 112.013 130.715 124.212 136.738 127.054C142.406 129.778 154.097 130.726 160.356 128.949C162.836 128.357 165.433 128.12 166.142 128.594C167.795 129.66 179.84 129.66 179.84 128.594C179.84 128.239 178.896 125.515 177.597 122.672C174.881 116.396 170.275 111.895 166.378 111.895C161.418 111.895 161.537 108.461 167.087 96.2619C169.921 90.1034 172.401 85.1292 172.755 85.1292C173.109 85.1292 174.881 87.6163 176.77 90.6956ZM155.986 95.7882L161.891 96.9725L160.592 100.525C158.939 104.671 158.23 104.789 153.506 101.355C151.499 99.8149 147.13 97.8015 143.823 96.6172L137.919 94.6038L144.059 94.4854C147.484 94.4854 152.798 95.0776 155.986 95.7882ZM364.297 99.2227C362.171 101.236 359.927 102.776 359.101 102.776C357.92 102.776 366.304 95.9066 367.603 95.7882C367.958 95.7882 366.422 97.3278 364.297 99.2227ZM294.978 115.803C298.048 117.817 298.166 118.172 296.041 118.172C294.742 118.172 292.616 117.106 291.435 115.803C288.719 112.724 290.373 112.724 294.978 115.803ZM286.121 116.396C286.121 118.29 285.059 118.646 282.106 117.461C279.154 116.396 279.863 114.619 283.169 114.619C285.059 114.619 286.121 115.33 286.121 116.396ZM165.079 116.988C164.725 117.58 163.78 118.172 163.19 118.172C162.481 118.172 162.363 117.58 162.717 116.988C163.072 116.277 164.016 115.803 164.607 115.803C165.315 115.803 165.433 116.277 165.079 116.988ZM171.338 119.119C171.574 119.949 170.629 120.422 168.74 120.304C166.496 120.067 166.142 119.712 167.087 118.527C168.504 116.751 170.629 116.988 171.338 119.119ZM276.32 121.962C275.966 122.791 275.729 122.199 275.729 120.541C275.729 118.883 275.966 118.29 276.32 119.001C276.556 119.83 276.556 121.251 276.32 121.962ZM292.498 161.4C292.616 182.481 292.498 184.258 290.018 189.232C287.184 194.917 277.855 204.983 279.626 200.483C281.988 194.443 283.76 184.376 283.641 177.389L283.523 169.69L281.988 176.915C281.162 180.942 279.626 185.797 278.682 187.692C277.028 190.771 266.991 201.075 265.456 201.075C265.101 201.075 266.164 197.522 267.817 193.259L270.77 185.56L267.227 188.403C263.802 191.364 255.772 194.68 254.709 193.732C254.473 193.377 256.835 191.008 260.023 188.284C267.345 182.126 269.589 177.27 269.589 167.795C269.589 159.624 270.652 159.505 273.722 167.322L275.493 172.059L275.021 163.769C274.903 159.15 274.194 154.531 273.722 153.228C272.895 151.333 273.131 151.215 275.139 152.399C278.209 153.939 280.217 151.925 283.878 143.635C285.295 140.319 287.302 136.529 288.365 135.226L290.254 132.621L291.317 135.819C291.908 137.477 292.38 148.965 292.498 161.4ZM127.29 175.967C126.936 176.323 125.991 175.967 125.165 175.138C124.102 173.954 124.22 173.836 125.873 174.546C127.054 174.901 127.645 175.612 127.29 175.967ZM136.501 177.033C134.966 177.27 132.605 177.27 131.187 177.033C129.652 176.796 130.833 176.559 133.785 176.559C136.738 176.559 137.919 176.796 136.501 177.033ZM173.818 183.784C175.353 191.837 177.715 195.153 182.084 195.153C188.107 195.153 192.948 200.72 194.602 209.602C195.31 213.629 195.074 214.103 191.768 215.761C181.848 220.972 171.692 218.84 169.212 211.023C167.441 205.576 168.268 183.902 170.393 179.402C171.22 177.625 172.047 176.323 172.283 176.441C172.401 176.678 173.109 179.994 173.818 183.784ZM172.755 220.735C175.353 222.511 177.479 223.933 177.479 224.051C177.479 224.051 175.825 228.67 173.936 234.236L170.393 244.303L170.984 236.605L171.574 228.907L169.685 233.052C167.205 238.026 166.142 255.317 167.795 262.305C169.567 269.885 167.441 267.279 164.371 258.278C161.064 248.093 160.946 234.118 164.135 224.525C165.433 220.853 166.024 217.064 165.552 216.235C165.197 215.406 164.371 213.392 164.016 211.734C163.426 209.721 164.016 210.194 165.67 213.274C166.969 215.642 170.157 219.077 172.755 220.735ZM231.328 228.433C228.966 231.986 225.659 236.96 223.888 239.566L220.7 244.303L219.991 240.75C219.401 237.316 219.282 237.434 217.747 243.119L216.212 249.04L213.968 244.895L211.607 240.75L212.315 248.448C212.788 254.962 212.669 255.791 211.489 253.659C210.662 252.357 207.946 249.514 205.584 247.382L201.215 243.593L202.278 247.264L203.34 250.935L197.908 246.08C194.956 243.474 192.24 241.579 192.004 241.816C191.768 242.053 192.358 244.303 193.421 246.79L195.192 251.172L192.712 248.922C191.295 247.738 188.933 244.422 187.28 241.698C185.627 238.855 184.21 236.605 184.092 236.605C183.974 236.605 183.974 238.382 184.21 240.395L184.564 244.303L182.793 240.75C181.139 237.197 180.549 229.854 181.612 226.775C182.202 225.472 183.265 225.591 187.752 227.959C194.247 231.157 196.963 231.276 208.891 228.67C215.386 227.249 217.393 226.42 215.74 225.828C214.323 225.235 215.858 224.88 219.991 224.762C223.534 224.643 228.375 223.933 230.619 223.104C232.863 222.275 234.87 221.801 235.107 221.919C235.225 221.919 233.571 224.88 231.328 228.433ZM246.915 247.146C243.845 253.186 243.137 256.383 242.664 264.318C242.192 272.964 242.546 274.977 245.38 281.728C252.938 299.848 254.591 305.77 254.709 314.771C254.709 325.193 252.348 330.878 245.026 337.51C237.232 344.616 234.28 345.208 241.483 338.339C246.915 333.128 248.451 330.641 250.104 324.956C252.466 316.903 251.993 308.612 248.923 300.796C246.207 294.163 245.617 294.992 247.742 302.335C249.75 308.968 250.222 318.798 248.333 315.955C247.742 315.008 247.152 312.876 247.152 311.455C247.152 309.915 244.908 302.098 242.192 294.282C237.823 281.491 237.232 278.53 237.232 268.582C237.114 258.989 237.468 256.502 239.83 252.001C242.31 247.264 249.513 238.5 250.222 239.329C250.458 239.447 248.923 243 246.915 247.146ZM236.405 255.436C234.044 262.187 235.815 279.478 240.184 292.269C244.908 306.48 246.089 320.929 243.019 330.049C240.775 336.918 238.531 339.405 239.83 333.483C241.956 323.772 240.539 312.284 235.461 296.414C229.084 277.109 228.612 267.871 233.453 257.212C236.76 250.106 238.649 248.922 236.405 255.436ZM206.883 263.963C207.592 267.161 210.544 276.28 213.496 284.097C216.448 291.913 218.81 299.493 218.81 301.033C218.81 302.454 217.629 308.139 216.33 313.586C211.961 330.641 214.559 345.09 224.833 362.381C227.431 366.881 229.438 370.908 229.084 371.145C228.375 371.974 219.046 360.012 216.448 355.038C210.19 342.603 209.009 327.917 213.024 312.047C216.094 299.848 215.622 295.822 208.891 280.899C203.104 268.108 200.034 253.422 203.813 256.502C204.757 257.331 206.174 260.765 206.883 263.963ZM188.107 297.243C191.413 304.704 191.177 314.534 187.516 322.469C184.564 328.627 177.951 335.733 172.519 338.457C170.984 339.286 171.574 338.339 174.172 336.207C176.534 334.194 179.959 329.456 181.848 325.667C184.918 319.508 185.154 317.85 185.154 305.651C185.154 298.309 185.273 292.269 185.509 292.269C185.745 292.269 186.926 294.519 188.107 297.243Z" fill="black"/>
<path d="M260.496 72.4568C257.78 74.4702 251.757 78.6153 247.152 81.813C238.295 87.8531 232.509 94.6038 230.619 101.354C228.966 107.631 230.029 107.395 233.335 100.762C236.642 94.2485 244.79 86.195 254.237 80.0365C260.614 76.0098 266.991 70.0881 265.928 69.2591C265.692 69.0222 263.212 70.4434 260.496 72.4568Z" fill="black"/>
<path d="M192.122 83.2343C193.421 85.2477 196.373 89.156 198.853 92.1168C201.333 95.0776 204.994 100.407 206.883 103.96C211.134 111.54 211.607 109.645 207.828 100.762C206.411 97.3279 202.396 91.6431 198.971 88.0901C191.531 80.2735 189.051 78.497 192.122 83.2343Z" fill="black"/>
<path d="M268.998 83.8265C267.817 85.1293 263.802 87.9717 260.259 89.985C246.207 97.92 235.697 108.105 233.689 115.803C232.981 118.409 233.099 118.291 234.87 115.211C239.121 107.513 245.38 101.355 256.362 94.1302C266.282 87.4979 273.604 81.4578 271.714 81.4578C271.36 81.4578 270.179 82.5237 268.998 83.8265Z" fill="black"/>
<path d="M265.455 94.0117C252.229 104.671 249.513 107.632 245.262 116.277C243.018 120.778 241.247 124.686 241.247 125.041C241.247 125.278 242.664 125.16 244.553 124.804L247.742 124.094L244.199 127.055C241.129 129.66 241.011 130.015 243.018 130.015C245.262 130.134 245.262 130.134 243.254 131.673C241.365 133.095 241.365 133.331 243.136 134.042C244.199 134.397 244.79 135.463 244.435 136.411C244.081 137.358 245.144 139.253 246.797 140.793C249.631 143.398 249.749 143.398 248.923 141.266C247.506 137.832 247.86 134.516 249.867 129.897C250.812 127.647 252.347 122.909 253.056 119.356C255.3 109.763 257.071 106.684 266.99 96.4988C271.95 91.5246 275.493 87.3795 274.902 87.3795C274.194 87.3795 270.061 90.3403 265.455 94.0117Z" fill="black"/>
<path d="M282.815 98.1571C275.021 102.065 274.43 104.316 282.106 100.881C290.372 97.0912 290.136 97.2096 288.719 96.3806C288.129 96.0253 285.531 96.8543 282.815 98.1571Z" fill="black"/>
<path d="M273.958 100.17C271.714 102.539 271.242 104.552 273.131 103.368C274.312 102.657 277.028 98.0381 276.32 98.0381C276.084 98.0381 275.021 98.9855 273.958 100.17Z" fill="black"/>
<path d="M236.405 161.163C237.114 163.058 237.704 164.716 237.704 164.953C237.704 165.308 235.697 164.243 233.335 162.821L228.848 160.334L234.162 165.782C237.114 168.743 239.594 171.112 239.83 170.875C240.539 170.283 237.822 160.453 236.523 159.15C235.579 158.202 235.461 158.676 236.405 161.163Z" fill="black"/>
<path d="M225.187 174.309C228.257 183.191 224.833 188.758 214.086 192.666C207.946 194.916 203.34 198.943 204.875 200.601C205.82 201.43 220.936 196.693 224.124 194.679C230.973 190.179 232.154 179.52 226.486 173.006L223.652 169.69L225.187 174.309Z" fill="black"/>
<path d="M170.984 103.96C172.165 105.263 173.345 106.329 173.582 106.329C173.818 106.329 173.464 105.263 172.755 103.96C172.046 102.658 170.866 101.592 170.157 101.592C169.448 101.592 169.803 102.658 170.984 103.96Z" fill="black"/>
<path d="M179.84 106.684C180.431 108.579 181.021 112.25 181.021 114.974C181.139 119.12 181.257 119.593 182.32 117.817C183.855 115.211 182.793 108.816 180.431 105.618C178.778 103.486 178.778 103.605 179.84 106.684Z" fill="black"/>
<path d="M384.136 97.9196C384.136 100.644 386.143 103.723 392.638 111.066C405.392 125.396 414.957 139.371 424.523 157.847C445.543 198.232 451.093 218.248 449.912 247.856C449.321 263.844 446.487 277.582 442 286.465C440.701 288.952 439.638 292.268 439.638 293.689C439.52 297.242 427.357 324.837 420.98 335.733C418.146 340.47 412.832 348.524 409.053 353.498C401.849 363.21 380.711 385.475 370.555 394.121C367.249 396.963 366.186 398.266 368.194 397.081C375.633 392.581 386.498 383.225 398.307 370.789C419.208 349.234 426.884 336.562 438.457 305.296C452.392 267.634 454.163 259.462 454.163 231.867C454.045 210.194 451.801 195.508 445.897 176.914C441.527 163.295 429.246 137.595 425.467 134.16C421.452 130.489 420.744 132.857 424.404 138.305C426.412 141.266 430.073 147.898 432.553 153.109C437.394 163.058 446.723 189.35 446.723 192.666C446.723 193.732 444.598 188.166 441.882 180.349C431.844 150.267 418.736 128.357 398.543 107.276C391.694 100.288 385.671 94.4851 385.199 94.4851C384.608 94.4851 384.136 96.0247 384.136 97.9196ZM447.55 197.759C447.196 198.706 446.842 198.351 446.842 197.048C446.723 195.745 447.078 195.035 447.432 195.508C447.786 195.864 447.904 196.93 447.55 197.759ZM448.731 203.68C448.377 204.628 448.022 204.272 448.022 202.97C447.904 201.667 448.259 200.956 448.613 201.43C448.967 201.785 449.085 202.851 448.731 203.68ZM449.912 210.786C449.558 211.615 449.321 211.023 449.321 209.365C449.321 207.707 449.558 207.115 449.912 207.825C450.148 208.654 450.148 210.076 449.912 210.786ZM451.093 219.669C450.738 220.853 450.502 220.142 450.502 218.248C450.502 216.234 450.738 215.405 451.093 216.116C451.329 216.945 451.329 218.603 451.093 219.669Z" fill="black"/>
<path d="M92.9262 119.001C69.6625 145.767 54.1927 176.205 47.934 207.826C45.336 221.091 45.336 255.673 48.0521 267.398L49.7053 275.096L49.1149 262.661C48.4063 247.264 50.5319 218.485 53.6023 203.681C59.743 173.362 73.4414 145.412 95.1699 118.409C99.5392 113.08 102.846 108.698 102.491 108.698C102.255 108.698 97.886 113.317 92.9262 119.001Z" fill="black"/>
<path d="M96.2327 126.107C84.0695 141.859 72.1424 164.953 67.0645 182.718C63.2856 196.101 60.3334 213.037 60.9238 218.011C61.2781 221.327 61.3962 221.209 61.5143 216.945C61.7505 210.668 68.8359 185.205 73.9137 171.941C79.2278 157.966 86.4313 143.872 94.2252 131.673C101.074 121.014 101.901 119.001 96.2327 126.107Z" fill="black"/>
<path d="M423.223 165.663C428.655 176.559 435.623 198.943 437.867 212.8C439.52 222.393 439.874 229.617 439.402 246.198C439.047 257.923 439.047 267.279 439.284 267.042C439.52 266.805 440.11 260.054 440.701 252.238C443.181 220.379 436.804 185.205 424.877 164.834C420.271 157.018 419.208 157.491 423.223 165.663Z" fill="black"/>
<path d="M296.867 221.09C296.749 229.617 294.151 240.75 290.608 247.738C289.309 250.461 285.176 256.62 281.397 261.476C274.43 270.714 270.533 277.346 267.581 285.636C265.101 292.624 262.267 316.902 263.329 322.469L264.156 327.206L264.983 321.284C265.337 317.968 266.754 312.876 268.171 310.033L270.533 304.704L270.769 313.586L271.005 322.469L272.54 313.942C274.312 303.756 279.272 292.86 286.475 282.557C294.269 271.424 294.269 270.95 286.121 278.649C277.973 286.465 278.445 284.689 288.601 270.832C291.789 266.45 295.214 260.647 296.277 257.804C298.638 251.409 299.937 223.696 298.166 217.656C296.985 213.747 296.985 213.866 296.867 221.09Z" fill="black"/>
<path d="M335.01 220.499C335.482 221.683 338.553 226.776 341.977 231.868C348.59 241.935 351.306 242.646 345.284 232.816C343.158 229.5 341.741 226.657 341.977 226.42C343.394 224.999 362.643 251.883 369.965 265.622L375.042 275.096L370.555 270.004C368.075 267.161 362.052 262.187 357.093 258.871L348.118 252.712L359.455 263.964C369.138 273.438 371.618 276.636 375.633 285.163C382.836 300.086 384.49 308.731 383.781 326.615C383.427 334.786 382.836 342.721 382.482 344.38C382.01 346.156 382.6 345.445 384.017 342.721C389.213 332.063 390.276 301.981 386.025 286.347C383.899 278.649 373.98 257.805 368.666 249.87C361.698 239.448 347.291 226.183 342.095 225.473C341.032 225.354 338.907 223.578 337.372 221.683C335.364 219.433 334.538 218.959 335.01 220.499Z" fill="black"/>
<path d="M317.179 259.108C317.179 262.661 317.415 264.2 317.652 262.305C317.888 260.529 317.888 257.686 317.652 255.791C317.415 254.015 317.179 255.555 317.179 259.108Z" fill="black"/>
<path d="M348.118 263.844C354.259 276.635 356.503 287.057 354.968 294.755C354.023 299.256 354.377 300.914 357.211 307.072C369.138 332.891 367.485 363.447 352.606 393.529L349.654 399.45L353.432 395.897C359.101 390.449 367.131 376.829 370.674 366.289C373.39 358.236 373.98 354.683 374.098 342.602C374.216 334.786 375.043 324.837 375.87 320.455C377.877 310.152 376.106 299.137 370.437 287.886C368.194 283.504 366.659 281.136 367.013 282.794C371.5 304.23 372.445 309.796 372.091 312.876L371.618 316.547L370.674 312.994C366.422 296.058 358.628 274.977 353.551 266.687C344.458 251.883 341.623 250.461 348.118 263.844ZM373.508 327.088C373.508 330.167 372.799 329.219 371.854 324.837C371.264 322.232 371.382 321.758 372.327 323.061C372.917 324.008 373.508 325.903 373.508 327.088Z" fill="black"/>
<path d="M315.88 275.333C315.172 278.412 313.518 284.452 312.219 288.715C310.92 292.861 309.976 296.532 310.212 296.65C311.157 297.598 315.88 284.215 316.943 277.82C318.36 269.174 317.533 267.398 315.88 275.333Z" fill="black"/>
<path d="M437.395 271.661C437.395 272.964 437.749 273.319 438.103 272.371C438.458 271.542 438.339 270.477 437.985 270.121C437.631 269.647 437.277 270.358 437.395 271.661Z" fill="black"/>
<path d="M57.7352 278.056C60.2151 299.966 71.6699 326.022 88.7929 348.761C106.506 372.21 137.328 398.384 164.607 412.951C179.486 420.886 180.903 420.65 166.85 412.596C134.612 394.121 108.75 368.302 84.5416 330.285C74.1497 314.06 67.7729 301.269 61.5141 284.096C57.2629 272.135 57.0267 271.898 57.7352 278.056Z" fill="black"/>
<path d="M322.375 297.124C321.076 308.849 318.478 316.429 310.92 330.759C303.598 344.735 302.063 348.998 301 357.407C300.528 361.078 300.646 362.026 301.355 360.249C301.945 358.946 305.488 353.143 309.267 347.34C321.312 328.509 324.382 318.561 323.674 299.967L323.319 289.308L322.375 297.124Z" fill="black"/>
<path d="M338.317 305.888C340.206 312.283 340.915 318.915 341.387 334.312C341.978 353.853 341.978 354.327 343.749 349.708C344.812 346.629 345.52 340.707 345.52 333.127C345.52 323.297 344.93 319.626 342.214 311.573C338.081 299.019 335.01 294.637 338.317 305.888Z" fill="black"/>
<path d="M380.003 310.033C380.357 313.586 380.593 318.679 380.593 321.166C380.593 323.772 380.947 325.43 381.42 325.074C382.483 324.008 381.892 312.876 380.593 307.665C379.649 304.112 379.53 304.467 380.003 310.033Z" fill="black"/>
<path d="M328.279 318.442C327.217 327.443 321.903 337.746 312.337 349.353C302.418 361.315 301.473 363.565 301.591 372.566L301.709 379.316L303.953 372.21C305.488 366.999 308.558 362.025 315.053 353.853C325.327 340.944 328.634 333.246 329.578 320.929C330.169 311.099 329.342 309.441 328.279 318.442Z" fill="black"/>
<path d="M295.332 343.077C292.97 348.051 287.656 356.104 283.523 360.96C268.526 378.725 267.699 380.738 268.998 396.135C269.825 405.609 271.95 408.925 271.95 400.635C271.95 394.595 274.312 384.647 276.91 379.436C278.209 376.83 282.106 371.027 285.531 366.408C288.955 361.789 292.852 355.867 294.151 353.262C296.631 348.288 300.764 335.023 300.056 334.313C299.938 334.194 297.812 338.103 295.332 343.077Z" fill="black"/>
<path d="M356.621 345.326C354.141 356.814 338.199 393.766 330.169 407.267C322.138 420.531 308.322 439.007 299.111 448.6C295.096 452.864 292.852 454.64 294.151 452.745C297.458 447.653 305.252 431.901 304.661 431.309C303.953 430.598 284.468 459.022 279.862 467.549C275.375 475.721 269.352 488.867 270.061 488.867C270.297 488.867 272.777 485.788 275.611 481.998C278.445 478.327 289.9 465.773 301 454.285C312.219 442.678 325.681 427.637 330.877 420.65C341.269 406.675 352.96 385.001 356.975 372.211C359.691 363.328 361.699 338.22 359.809 336.918C359.219 336.562 357.802 340.352 356.621 345.326Z" fill="black"/>
<path d="M237.822 374.105C235.697 378.724 233.807 384.172 233.453 386.304C233.217 388.317 234.162 386.541 235.697 382.277C237.35 378.014 239.476 372.803 240.539 370.552C241.719 368.42 242.428 366.407 242.074 366.17C241.838 365.815 239.948 369.486 237.822 374.105Z" fill="black"/>
<path d="M325.327 377.778C323.91 382.989 316.824 419.466 317.297 419.821C318.005 420.65 322.611 407.741 324.618 399.096C325.563 394.95 326.153 388.2 325.917 384.173C325.681 380.265 325.445 377.304 325.327 377.778Z" fill="black"/>
<path d="M281.516 400.753C278.918 403.832 275.257 409.28 273.486 412.952C270.415 418.992 270.179 420.887 270.061 433.796C269.825 447.653 269.825 447.771 270.652 437.941C271.124 432.375 272.305 425.742 273.132 423.137C274.785 417.807 281.162 404.898 285.059 399.095C288.601 393.647 287.184 394.358 281.516 400.753Z" fill="black"/>
</svg>
